<svg width="31" height="30" viewBox="0 0 31 30" fill="none" xmlns="http://www.w3.org/2000/svg">
<ellipse cx="15.125" cy="15" rx="15" ry="15" fill="#111111"/>
<path fill-rule="evenodd" clip-rule="evenodd" d="M17.683 8.07715C17.797 8.85149 17.4818 9.61009 17.066 10.1468C16.6212 10.7225 15.8545 11.1678 15.1116 11.1445C14.976 10.4032 15.3232 9.63932 15.7457 9.12584C16.2091 8.55914 17.0034 8.12437 17.683 8.07715ZM19.9145 18.9762C20.2974 18.3893 20.4405 18.0932 20.7378 17.4305C18.5755 16.6082 18.229 13.5341 20.369 12.3542C19.7163 11.5357 18.799 11.0612 17.9332 11.0612C17.3093 11.0612 16.8819 11.224 16.4933 11.372C16.1695 11.4953 15.8726 11.6084 15.5116 11.6084C15.1214 11.6084 14.7759 11.4845 14.4141 11.3548C14.0166 11.2122 13.5994 11.0627 13.0817 11.0627C12.1101 11.0627 11.0759 11.6563 10.4202 12.6713C9.49849 14.1008 9.6557 16.7881 11.1504 19.0774C11.6847 19.8967 12.3985 20.8172 13.3321 20.8255C13.7195 20.8293 13.9773 20.7137 14.2563 20.5886C14.5756 20.4454 14.9226 20.2897 15.5235 20.2865C16.1279 20.2829 16.4695 20.4404 16.7846 20.5858C17.0564 20.7111 17.3084 20.8274 17.6925 20.8232C18.6269 20.8157 19.3802 19.7955 19.9145 18.9762Z" fill="white"/>
</svg>
