<svg width="31" height="30" viewBox="0 0 31 30" fill="none" xmlns="http://www.w3.org/2000/svg">
<path d="M0.33252 15C0.33252 6.71573 7.04825 0 15.3325 0C23.6168 0 30.3325 6.71573 30.3325 15C30.3325 23.2843 23.6168 30 15.3325 30C7.04825 30 0.33252 23.2843 0.33252 15Z" fill="white"/>
<path d="M15.583 10.6383C16.8036 10.6383 17.6269 11.1656 18.0964 11.6061L19.9308 9.815C18.8041 8.76778 17.338 8.125 15.583 8.125C13.0408 8.125 10.8453 9.58389 9.77637 11.7072L11.878 13.3394C12.4053 11.7722 13.8641 10.6383 15.583 10.6383V10.6383Z" fill="#EA4335"/>
<path d="M21.8235 14.7693C21.8235 14.2349 21.7802 13.8449 21.6863 13.4404H15.5835V15.8527H19.1657C19.0935 16.4521 18.7035 17.3549 17.8368 17.9615L19.8879 19.5504C21.1157 18.4165 21.8235 16.7482 21.8235 14.7693V14.7693Z" fill="#4285F4"/>
<path d="M11.8852 15.9105C11.748 15.506 11.6686 15.0727 11.6686 14.6249C11.6686 14.1772 11.748 13.7438 11.878 13.3394L9.77634 11.7072C9.33579 12.5883 9.08301 13.5777 9.08301 14.6249C9.08301 15.6722 9.33579 16.6616 9.77634 17.5427L11.8852 15.9105V15.9105Z" fill="#FBBC05"/>
<path d="M15.5831 21.125C17.3381 21.125 18.8115 20.5472 19.8876 19.5505L17.8365 17.9616C17.2876 18.3444 16.5509 18.6116 15.5831 18.6116C13.8642 18.6116 12.4054 17.4777 11.8854 15.9105L9.78369 17.5427C10.8526 19.6661 13.0409 21.125 15.5831 21.125V21.125Z" fill="#34A853"/>
</svg>
