<svg width="31" height="30" viewBox="0 0 31 30" fill="none" xmlns="http://www.w3.org/2000/svg">
<ellipse cx="15.0215" cy="15" rx="15" ry="15" fill="#FFE812"/>
<path d="M15.2732 8.07959C10.9519 8.07959 7.44873 10.8511 7.44873 14.2698C7.44873 16.4801 8.91328 18.4195 11.1163 19.5147C10.9965 19.9294 10.3461 22.1828 10.3202 22.3598C10.3202 22.3598 10.3047 22.4928 10.3905 22.5435C10.4764 22.5943 10.5773 22.5549 10.5773 22.5549C10.8235 22.5204 13.432 20.6819 13.8835 20.3626C14.3346 20.4267 14.799 20.46 15.2732 20.46C19.5946 20.46 23.0978 17.6886 23.0978 14.2698C23.0978 10.8511 19.5946 8.07959 15.2732 8.07959Z" fill="#381F1F"/>
<path fill-rule="evenodd" clip-rule="evenodd" d="M10.9466 16.1788C10.6977 16.1788 10.4952 15.9854 10.4952 15.7477V13.0659H9.79087C9.54659 13.0659 9.3479 12.8676 9.3479 12.6239C9.3479 12.3802 9.54664 12.1819 9.79087 12.1819H12.1024C12.3467 12.1819 12.5454 12.3802 12.5454 12.6239C12.5454 12.8676 12.3466 13.0659 12.1024 13.0659H11.3981V15.7477C11.3981 15.9854 11.1956 16.1788 10.9466 16.1788ZM14.9047 16.173C14.7164 16.173 14.5725 16.0966 14.529 15.9736L14.3055 15.3884L12.929 15.3883L12.7053 15.9739C12.6621 16.0966 12.5181 16.173 12.3299 16.173C12.2309 16.1731 12.133 16.1518 12.0429 16.1107C11.9185 16.0533 11.7989 15.8954 11.9359 15.4697L13.0157 12.6276C13.0918 12.4114 13.3228 12.1887 13.6169 12.182C13.9117 12.1887 14.1427 12.4114 14.219 12.628L15.2983 15.4688C15.4357 15.8956 15.3161 16.0535 15.1916 16.1107C15.1015 16.1518 15.0037 16.173 14.9047 16.173ZM13.6171 13.3079L14.0679 14.5892H13.1664L13.6171 13.3079ZM16.025 16.113C15.7864 16.113 15.5925 15.9273 15.5925 15.6992V12.6333C15.5925 12.3843 15.7992 12.1819 16.0533 12.1819C16.3073 12.1819 16.5141 12.3843 16.5141 12.6333V15.2853H17.4733C17.7119 15.2853 17.906 15.471 17.906 15.6992C17.906 15.9273 17.7119 16.113 17.4733 16.113H16.025ZM18.0818 15.7215C18.0818 15.9705 18.2842 16.1729 18.5332 16.1729C18.6529 16.1727 18.7677 16.1251 18.8523 16.0404C18.937 15.9558 18.9846 15.841 18.9848 15.7213V14.7363L19.1414 14.5797L20.2001 15.9824C20.242 16.0384 20.2964 16.0838 20.3591 16.115C20.4217 16.1461 20.4907 16.1622 20.5606 16.1619C20.6587 16.1621 20.7541 16.1301 20.8322 16.0707C20.8796 16.0352 20.9195 15.9906 20.9496 15.9395C20.9796 15.8884 20.9993 15.8318 21.0073 15.773C21.0158 15.7143 21.0125 15.6546 20.9975 15.5971C20.9827 15.5397 20.9566 15.4858 20.9207 15.4386L19.8095 13.9666L20.8382 12.938C20.9089 12.8672 20.9444 12.7696 20.9378 12.6631C20.9313 12.5576 20.8842 12.456 20.8051 12.377C20.7203 12.2923 20.6071 12.2436 20.4945 12.2436C20.3978 12.2436 20.3088 12.2793 20.2441 12.3441L18.9846 13.6036V12.6333C18.9846 12.3843 18.7822 12.1819 18.5332 12.1819C18.2842 12.1819 18.0818 12.3843 18.0818 12.6333V15.7215Z" fill="#FFE812"/>
</svg>
